<svg width="21" height="21" viewBox="0 0 21 21" fill="none" xmlns="http://www.w3.org/2000/svg">
<g clip-path="url(#clip0_264_1562)">
<path d="M19.4498 0H1.55021C1.13907 0 0.744766 0.163325 0.454046 0.454046C0.163325 0.744766 0 1.13907 0 1.55021V19.4498C0 19.8609 0.163325 20.2552 0.454046 20.546C0.744766 20.8367 1.13907 21 1.55021 21H19.4498C19.8609 21 20.2552 20.8367 20.546 20.546C20.8367 20.2552 21 19.8609 21 19.4498V1.55021C21 1.13907 20.8367 0.744766 20.546 0.454046C20.2552 0.163325 19.8609 0 19.4498 0ZM6.25917 17.8894H3.10188V7.86042H6.25917V17.8894ZM4.67833 6.47063C4.32019 6.46861 3.97068 6.36055 3.67389 6.16008C3.37711 5.95961 3.14636 5.67571 3.01077 5.34423C2.87518 5.01274 2.84082 4.64852 2.91203 4.29752C2.98324 3.94653 3.15683 3.62449 3.41089 3.37206C3.66494 3.11963 3.98809 2.94811 4.33953 2.87915C4.69098 2.8102 5.05497 2.84689 5.38558 2.98461C5.71619 3.12233 5.9986 3.3549 6.19716 3.65296C6.39572 3.95103 6.50153 4.30123 6.50125 4.65938C6.50463 4.89915 6.4597 5.13716 6.36914 5.3592C6.27857 5.58125 6.14423 5.78279 5.97412 5.95181C5.80402 6.12083 5.60162 6.25387 5.379 6.34301C5.15637 6.43214 4.91809 6.47554 4.67833 6.47063ZM17.8967 17.8981H14.7408V12.4192C14.7408 10.8033 14.054 10.3046 13.1673 10.3046C12.231 10.3046 11.3123 11.0104 11.3123 12.46V17.8981H8.155V7.86771H11.1913V9.2575H11.2321C11.5369 8.64063 12.6044 7.58625 14.2333 7.58625C15.995 7.58625 17.8981 8.63188 17.8981 11.6944L17.8967 17.8981Z" fill="#0A66C2"/>
</g>
<defs>
<clipPath id="clip0_264_1562">
<rect width="21" height="21" fill="white"/>
</clipPath>
</defs>
</svg>
