<svg width="21" height="21" viewBox="0 0 21 21" fill="none" xmlns="http://www.w3.org/2000/svg">
<g clip-path="url(#clip0_264_1597)">
<path d="M10.5 21C16.299 21 21 16.299 21 10.5C21 4.70101 16.299 0 10.5 0C4.70101 0 0 4.70101 0 10.5C0 16.299 4.70101 21 10.5 21Z" fill="#FF4500"/>
<path d="M17.5 10.5C17.5 9.65261 16.8123 8.96489 15.9649 8.96489C15.5473 8.96489 15.1789 9.12454 14.9087 9.39472C13.8649 8.64559 12.4158 8.15437 10.8193 8.09296L11.5193 4.81401L13.7912 5.29296C13.8158 5.87015 14.2947 6.33682 14.8842 6.33682C15.4859 6.33682 15.9772 5.84559 15.9772 5.24384C15.9772 4.64209 15.4859 4.15086 14.8842 4.15086C14.4544 4.15086 14.0859 4.39647 13.914 4.76489L11.3719 4.22454C11.2982 4.21226 11.2245 4.22454 11.1631 4.26138C11.1017 4.29822 11.0649 4.35963 11.0403 4.43331L10.2666 8.09296C8.63331 8.14208 7.1719 8.62103 6.11576 9.39472C5.84559 9.13682 5.46489 8.96489 5.05962 8.96489C4.21226 8.96489 3.52454 9.65261 3.52454 10.5C3.52454 11.1263 3.89296 11.6544 4.43331 11.9C4.40875 12.0473 4.39647 12.207 4.39647 12.3666C4.39647 14.7245 7.13506 16.628 10.5245 16.628C13.914 16.628 16.6526 14.7245 16.6526 12.3666C16.6526 12.207 16.6403 12.0596 16.6158 11.9123C17.1193 11.6666 17.5 11.1263 17.5 10.5ZM6.99997 11.593C6.99997 10.9912 7.4912 10.5 8.09296 10.5C8.69471 10.5 9.18594 10.9912 9.18594 11.593C9.18594 12.1947 8.69471 12.6859 8.09296 12.6859C7.4912 12.6859 6.99997 12.1947 6.99997 11.593ZM13.1035 14.4789C12.3544 15.2281 10.9298 15.2772 10.5123 15.2772C10.0947 15.2772 8.65787 15.2158 7.92103 14.4789C7.8105 14.3684 7.8105 14.1842 7.92103 14.0737C8.03155 13.9631 8.21576 13.9631 8.32629 14.0737C8.79296 14.5403 9.79998 14.7123 10.5245 14.7123C11.2491 14.7123 12.2438 14.5403 12.7228 14.0737C12.8333 13.9631 13.0175 13.9631 13.128 14.0737C13.214 14.1965 13.214 14.3684 13.1035 14.4789ZM12.907 12.6859C12.3052 12.6859 11.814 12.1947 11.814 11.593C11.814 10.9912 12.3052 10.5 12.907 10.5C13.5087 10.5 14 10.9912 14 11.593C14 12.1947 13.5087 12.6859 12.907 12.6859Z" fill="white"/>
</g>
<defs>
<clipPath id="clip0_264_1597">
<rect width="21" height="21" fill="white"/>
</clipPath>
</defs>
</svg>
