<svg width="21" height="21" viewBox="0 0 21 21" fill="none" xmlns="http://www.w3.org/2000/svg">
<g clip-path="url(#clip0_264_1612)">
<path d="M10.5 21C16.299 21 21 16.299 21 10.5C21 4.70101 16.299 0 10.5 0C4.70101 0 0 4.70101 0 10.5C0 16.299 4.70101 21 10.5 21Z" fill="url(#paint0_linear_264_1612)"/>
<path fill-rule="evenodd" clip-rule="evenodd" d="M4.75289 10.3892C7.81385 9.05555 9.85498 8.17635 10.8763 7.75156C13.7922 6.53871 14.3981 6.32803 14.7931 6.32107C14.8799 6.31954 15.0741 6.34107 15.1999 6.44315C15.3062 6.52934 15.3354 6.64578 15.3494 6.7275C15.3634 6.80922 15.3808 6.99539 15.3669 7.14085C15.2089 8.80115 14.5252 12.8302 14.1773 14.6898C14.0301 15.4767 13.7403 15.7405 13.4597 15.7663C12.85 15.8224 12.387 15.3633 11.7964 14.9762C10.8723 14.3704 10.3502 13.9933 9.45315 13.4022C8.41647 12.719 9.0885 12.3436 9.6793 11.7299C9.83392 11.5693 12.5205 9.12568 12.5725 8.904C12.579 8.87628 12.5851 8.77293 12.5237 8.71836C12.4623 8.6638 12.3716 8.68246 12.3063 8.6973C12.2136 8.71833 10.7372 9.69413 7.8773 11.6247C7.45825 11.9124 7.07869 12.0526 6.73861 12.0453C6.36371 12.0372 5.64254 11.8333 5.10643 11.659C4.44887 11.4453 3.92625 11.3323 3.97176 10.9693C3.99546 10.7802 4.25584 10.5868 4.75289 10.3892Z" fill="white"/>
</g>
<defs>
<linearGradient id="paint0_linear_264_1612" x1="10.5" y1="0" x2="10.5" y2="20.8443" gradientUnits="userSpaceOnUse">
<stop stop-color="#2AABEE"/>
<stop offset="1" stop-color="#229ED9"/>
</linearGradient>
<clipPath id="clip0_264_1612">
<rect width="21" height="21" fill="white"/>
</clipPath>
</defs>
</svg>
