<svg width="21" height="21" viewBox="0 0 21 21" fill="none" xmlns="http://www.w3.org/2000/svg">
<path d="M6.60408 19.0319C14.5286 19.0319 18.863 12.4664 18.863 6.7729C18.863 6.58642 18.863 6.40078 18.8504 6.21598C19.6937 5.60607 20.4215 4.85088 21 3.98578C20.2137 4.33438 19.3795 4.56289 18.5254 4.66366C19.4248 4.12526 20.098 3.27835 20.4196 2.28058C19.5738 2.78249 18.6486 3.13618 17.6837 3.32638C17.0341 2.63564 16.1749 2.17824 15.2392 2.02498C14.3034 1.87172 13.3432 2.03113 12.5072 2.47855C11.6712 2.92597 11.0059 3.63646 10.6144 4.50006C10.2229 5.36366 10.1268 6.33224 10.3412 7.2559C8.62828 7.16997 6.95254 6.7248 5.42277 5.94929C3.89301 5.17377 2.54342 4.08523 1.4616 2.75434C0.910637 3.70284 0.741888 4.82567 0.989712 5.89421C1.23754 6.96276 1.8833 7.89668 2.79552 8.50582C2.10983 8.48573 1.43907 8.30075 0.84 7.96654V8.02114C0.840272 9.01589 1.18462 9.97991 1.81464 10.7497C2.44465 11.5195 3.32155 12.0477 4.2966 12.2447C3.6623 12.4177 2.99677 12.443 2.35116 12.3186C2.62659 13.1746 3.16262 13.9232 3.88433 14.4597C4.60604 14.9961 5.47735 15.2937 6.37644 15.3107C5.48313 16.0128 4.46015 16.532 3.36602 16.8384C2.27188 17.1448 1.12806 17.2325 0 17.0965C1.97035 18.3609 4.26293 19.0316 6.60408 19.0285" fill="#1DA1F2"/>
</svg>
