<svg width="41" height="41" viewBox="0 0 41 41" fill="none" xmlns="http://www.w3.org/2000/svg">
<g clip-path="url(#clip0_264_1406)">
<path d="M38.4544 7.40212C38.4538 7.39611 38.4524 7.39017 38.4516 7.38415C38.4488 7.36206 38.4454 7.34014 38.4409 7.31868C38.4394 7.31171 38.4373 7.30498 38.4356 7.29818C38.4306 7.27791 38.4253 7.2578 38.4188 7.23809C38.4163 7.23041 38.4133 7.22297 38.4105 7.21545C38.4039 7.19716 38.3969 7.17903 38.389 7.16138C38.3852 7.15291 38.381 7.14467 38.3769 7.13628C38.369 7.12021 38.3608 7.10438 38.3519 7.08894C38.3466 7.07983 38.3411 7.07097 38.3355 7.0621C38.3267 7.04809 38.3174 7.03439 38.3078 7.02093C38.3011 7.01175 38.2945 7.00265 38.2874 6.9937C38.2775 6.98111 38.2671 6.969 38.2564 6.95713C38.2488 6.9485 38.2412 6.93979 38.2331 6.93148C38.2213 6.91936 38.2089 6.90796 38.1964 6.89656C38.1901 6.89086 38.1845 6.88469 38.1781 6.87915L30.4726 0.323355C30.4708 0.321772 30.4687 0.320505 30.4669 0.318922C30.4599 0.313064 30.4523 0.30768 30.4451 0.30198C30.4332 0.292639 30.4212 0.283376 30.4088 0.274826C30.3997 0.268493 30.3902 0.262714 30.3808 0.256776C30.3697 0.249809 30.3586 0.242843 30.3472 0.23643C30.3364 0.230334 30.3254 0.224793 30.3143 0.219172C30.3037 0.213789 30.293 0.208564 30.2822 0.203734C30.2703 0.19843 30.2583 0.193443 30.2461 0.188614C30.2354 0.184418 30.2246 0.180539 30.2138 0.176818C30.2013 0.172543 30.1889 0.168505 30.1762 0.164864C30.1646 0.161539 30.1528 0.158609 30.141 0.155839C30.1289 0.152989 30.1169 0.14998 30.1046 0.147684C30.0903 0.144993 30.076 0.143014 30.0616 0.141114C30.0514 0.139768 30.0413 0.138026 30.0309 0.136997C30.0059 0.134543 29.9806 0.133118 29.9552 0.133118H14.1447C12.6997 0.133118 11.5242 1.30866 11.5242 2.75361V5.43317L4.44039 6.90883C3.75682 7.05165 3.16859 7.45319 2.78401 8.03957C2.39896 8.62667 2.2657 9.32643 2.40878 10.0095L8.37779 38.5814C8.51913 39.2639 8.9197 39.8513 9.50572 40.2353C9.93931 40.5196 10.4347 40.6665 10.9396 40.6665C11.1189 40.6665 11.2993 40.648 11.4787 40.6105L32.7152 36.1856C33.5942 36.0016 34.3045 35.373 34.6211 34.5607H35.8387C37.2836 34.5607 38.4591 33.3852 38.4591 31.9402V7.48723C38.4591 7.45849 38.4574 7.43015 38.4544 7.40212ZM30.7536 2.65901L35.4902 6.68891H32.1925C31.3991 6.68891 30.7536 6.04441 30.7536 5.25235V2.65901ZM35.8387 32.9641H33.9815C33.9801 32.9641 33.9789 32.9641 33.9775 32.9641H14.1447C13.5803 32.9641 13.1212 32.5048 13.1212 31.9402V22.7909C13.1212 22.3501 12.7637 21.9926 12.3227 21.9926C11.8818 21.9926 11.5243 22.3501 11.5243 22.7909V31.9402C11.5243 33.3852 12.6998 34.5607 14.1447 34.5607H32.5812C32.5198 34.5872 32.4557 34.6086 32.3887 34.6226L11.1524 39.0473C10.8851 39.1033 10.6115 39.0507 10.3812 38.8998C10.1525 38.7498 9.99632 38.5217 9.94129 38.2561L3.97188 9.68252C3.91637 9.41739 3.96871 9.14482 4.11939 8.91508C4.27039 8.68486 4.50041 8.5274 4.76653 8.47174L11.5242 7.06408V15.2157C11.5242 15.6566 11.8817 16.014 12.3226 16.014C12.7636 16.014 13.1211 15.6566 13.1211 15.2157V6.08321C13.1211 6.08138 13.1211 6.07956 13.1211 6.07774V2.75361C13.1211 2.18908 13.5802 1.72975 14.1446 1.72975H29.1566V5.25235C29.1566 6.92491 30.5185 8.28554 32.1924 8.28554H36.8621V31.9401C36.8622 32.5048 36.403 32.9641 35.8387 32.9641Z" fill="#354B9E"/>
<path d="M28.1611 9.90631V8.77082C28.1611 7.58696 27.1983 6.6239 26.0149 6.6239H19.4405C18.257 6.6239 17.2942 7.58704 17.2942 8.77082V15.3356C17.2942 16.5182 18.257 17.4803 19.4405 17.4803H20.5764C20.8556 18.5002 21.3947 19.4354 22.1634 20.2034C23.3659 21.4046 24.9456 22.0052 26.5251 22.0052C28.1048 22.0052 29.6843 21.4046 30.8869 20.2034C30.8869 20.2033 30.8871 20.2032 30.8872 20.203C33.2901 17.8003 33.2901 13.8905 30.8869 11.4873C30.1037 10.7049 29.1601 10.1791 28.1611 9.90631ZM19.4405 15.8836C19.1376 15.8836 18.8912 15.6378 18.8912 15.3356V8.77082C18.8912 8.46738 19.1377 8.22053 19.4405 8.22053H26.0149C26.3127 8.22053 26.5643 8.47252 26.5643 8.77082V9.68646C24.9717 9.67641 23.3758 10.2762 22.1634 11.4873C20.998 12.6515 20.3563 14.1991 20.3563 15.8454C20.3563 15.8582 20.3571 15.8709 20.3572 15.8837H19.4405V15.8836ZM21.9531 15.8453C21.9531 14.6258 22.4286 13.4793 23.2919 12.6169C24.1834 11.7264 25.3542 11.2813 26.5252 11.2813C26.5382 11.2813 26.5513 11.2821 26.5642 11.2822V15.3356C26.5642 15.6378 26.3177 15.8836 26.0148 15.8836H21.954C21.954 15.8709 21.9531 15.8581 21.9531 15.8453ZM29.7582 19.0738C27.9756 20.8545 25.0749 20.8547 23.292 19.0738C22.8309 18.6131 22.4816 18.0709 22.2552 17.4803H26.0149C27.1983 17.4803 28.1611 16.5182 28.1611 15.3356V11.5831C28.7434 11.805 29.2895 12.1487 29.7579 12.6166C31.5381 14.3968 31.5381 17.2935 29.7582 19.0738Z" fill="#354B9E"/>
<path d="M31.3452 23.9326H18.0926C17.6516 23.9326 17.2942 24.2901 17.2942 24.731C17.2942 25.172 17.6517 25.5295 18.0926 25.5295H31.3452C31.7862 25.5295 32.1437 25.172 32.1437 24.731C32.1437 24.2901 31.7862 23.9326 31.3452 23.9326Z" fill="#354B9E"/>
<path d="M31.3452 28.5034H18.0926C17.6516 28.5034 17.2942 28.8609 17.2942 29.3018C17.2942 29.7428 17.6517 30.1003 18.0926 30.1003H31.3452C31.7862 30.1003 32.1437 29.7428 32.1437 29.3018C32.1437 28.8609 31.7862 28.5034 31.3452 28.5034Z" fill="#354B9E"/>
<path d="M12.3251 18.196C11.884 18.196 11.5266 18.5535 11.5266 18.9945V19.0103C11.5266 19.4513 11.8841 19.8088 12.3251 19.8088C12.766 19.8088 13.1235 19.4513 13.1235 19.0103V18.9945C13.1235 18.5535 12.766 18.196 12.3251 18.196Z" fill="#354B9E"/>
</g>
<defs>
<clipPath id="clip0_264_1406">
<rect width="40.5404" height="40.5333" fill="white" transform="translate(0.135254 0.133209)"/>
</clipPath>
</defs>
</svg>
