<svg xmlns="http://www.w3.org/2000/svg" width="68" height="69" viewBox="0 0 68 69" fill="none">
<rect x="0.421387" y="0.545544" width="67.5394" height="67.5394" rx="16.9967" fill="white" fill-opacity="0.56"/>
<path fill-rule="evenodd" clip-rule="evenodd" d="M32.9184 27.9473C32.9273 27.8308 33.0245 27.7408 33.1413 27.7408H34.1296C34.2445 27.7408 34.3407 27.8279 34.3521 27.9422L35.0309 34.7296L39.8103 37.4607C39.88 37.5005 39.923 37.5746 39.923 37.6549V38.63C39.923 38.7775 39.7828 38.8846 39.6405 38.8458L32.4137 36.8748C32.3102 36.8466 32.2413 36.7489 32.2495 36.6419L32.9184 27.9473Z" fill="#FABB18"/>
<path fill-rule="evenodd" clip-rule="evenodd" d="M26.3176 18.5165C26.1994 18.3757 25.9714 18.4296 25.9287 18.6083L23.9841 26.7609C23.9494 26.9066 24.0648 27.0446 24.2143 27.0361L32.601 26.5608C32.7848 26.5504 32.878 26.3348 32.7596 26.1938L30.4858 23.484C31.7069 23.0667 33.0018 22.8487 34.3314 22.8487C40.8931 22.8487 46.2123 28.168 46.2123 34.7296C46.2123 41.2912 40.8931 46.6105 34.3314 46.6105C27.7698 46.6105 22.4505 41.2912 22.4505 34.7296C22.4505 33.6281 22.5997 32.5492 22.8906 31.5123L20.1989 30.7573C19.8446 32.0207 19.655 33.353 19.655 34.7296C19.655 42.8351 26.2259 49.406 34.3314 49.406C42.437 49.406 49.0078 42.8351 49.0078 34.7296C49.0078 26.6241 42.437 20.0532 34.3314 20.0532C32.2926 20.0532 30.3508 20.469 28.5864 21.2203L26.3176 18.5165Z" fill="#FABB18"/>
</svg>