<svg width="21" height="21" viewBox="0 0 21 21" fill="none" xmlns="http://www.w3.org/2000/svg">
<path d="M19.51 15.4697C16.2581 13.8951 15.7398 11.4638 15.7167 11.2835C15.6888 11.065 15.6571 10.8933 15.898 10.6711C16.1304 10.4564 17.1611 9.81826 17.447 9.61861C17.9197 9.288 18.1279 8.95793 17.9745 8.55218C17.8672 8.27148 17.6059 8.16575 17.3306 8.16575C17.2438 8.16602 17.1573 8.17574 17.0725 8.19474C16.5532 8.30744 16.0488 8.56774 15.7569 8.63805C15.7219 8.6471 15.6858 8.65196 15.6496 8.65254C15.494 8.65254 15.435 8.58331 15.45 8.396C15.4865 7.82817 15.5638 6.71987 15.4742 5.68457C15.3513 4.26016 14.892 3.5544 14.3474 2.93021C14.084 2.62751 12.8607 1.32708 10.4999 1.32708C8.13909 1.32708 6.91739 2.62751 6.65555 2.92646C6.10935 3.55064 5.65061 4.25641 5.52881 5.68082C5.43921 6.71612 5.51969 7.82387 5.55296 8.39224C5.56369 8.57043 5.50896 8.64879 5.35336 8.64879C5.31715 8.64817 5.28114 8.6433 5.24605 8.6343C4.95471 8.56399 4.45036 8.30369 3.93099 8.19098C3.84627 8.17198 3.75973 8.16226 3.67291 8.162C3.39659 8.162 3.13637 8.26934 3.02906 8.54842C2.87561 8.95417 3.08271 9.28424 3.55702 9.61485C3.84299 9.81451 4.87369 10.4521 5.10602 10.6673C5.34639 10.8895 5.31527 11.0613 5.28737 11.2797C5.2643 11.4627 4.74546 13.894 1.49401 15.466C1.30354 15.5583 0.979465 15.7537 1.55088 16.0692C2.44798 16.5652 3.04516 16.512 3.50927 16.811C3.90309 17.0648 3.67023 17.6123 3.95674 17.8098C4.30871 18.0529 5.34907 17.7926 6.69311 18.2365C7.81985 18.6079 8.50448 19.6571 10.5026 19.6571C12.5007 19.6571 13.2051 18.603 14.312 18.2365C15.6534 17.7926 16.6959 18.0529 17.0484 17.8098C17.3344 17.6123 17.102 17.0648 17.4959 16.811C17.96 16.512 18.5566 16.5652 19.4542 16.0692C20.0246 15.7574 19.7005 15.5621 19.51 15.4697Z" fill="white"/>
<path d="M20.9248 15.2844C20.7789 14.8873 20.501 14.6748 20.1844 14.4987C20.1248 14.4638 20.0701 14.4359 20.0234 14.4145C19.929 14.3656 19.8324 14.3184 19.7364 14.2685C18.7497 13.7452 17.9792 13.085 17.4448 12.3025C17.2931 12.0822 17.1614 11.8487 17.0515 11.6048C17.0059 11.4744 17.0081 11.4003 17.0408 11.3327C17.0733 11.2806 17.1162 11.2358 17.1669 11.2012C17.3364 11.089 17.5113 10.9753 17.6299 10.8985C17.8413 10.7617 18.0087 10.6532 18.1166 10.5765C18.5217 10.2931 18.805 9.99202 18.982 9.6555C19.1055 9.42301 19.1776 9.16663 19.1932 8.9038C19.2089 8.64097 19.1678 8.37786 19.0727 8.13234C18.8044 7.42604 18.1375 6.98755 17.3295 6.98755C17.159 6.98739 16.9891 7.00538 16.8224 7.04122C16.7779 7.05088 16.7334 7.06108 16.6899 7.07235C16.6974 6.58932 16.6867 6.07945 16.6438 5.57763C16.4914 3.81349 15.8738 2.88875 15.23 2.15132C14.8177 1.68921 14.332 1.29826 13.7926 0.994186C12.8155 0.436015 11.7076 0.152636 10.4998 0.152636C9.29204 0.152636 8.18945 0.436015 7.21133 0.994186C6.67056 1.29835 6.18393 1.69009 5.77125 2.15347C5.1274 2.8909 4.50984 3.81725 4.35746 5.57978C4.31454 6.0816 4.30381 6.59415 4.31078 7.0745C4.26732 7.06323 4.22332 7.05303 4.17879 7.04337C4.01216 7.00753 3.84219 6.98954 3.67176 6.9897C2.86319 6.9897 2.19519 7.42819 1.92799 8.13449C1.83249 8.38011 1.79096 8.64342 1.80623 8.90652C1.82151 9.16962 1.89323 9.42635 2.01652 9.65926C2.19412 9.99577 2.47741 10.2969 2.8825 10.5802C2.98981 10.6554 3.15775 10.7638 3.36915 10.9023C3.48343 10.9763 3.6503 11.0847 3.81394 11.1932C3.8712 11.2302 3.91986 11.279 3.95666 11.3365C3.991 11.4068 3.99207 11.4824 3.9411 11.622C3.83269 11.8608 3.70323 12.0894 3.55426 12.3052C3.03166 13.07 2.28372 13.7183 1.32867 14.2373C0.822715 14.5057 0.296903 14.6849 0.074774 15.2887C-0.0926273 15.7444 0.0168273 16.2629 0.442306 16.6997C0.59846 16.8628 0.779576 16.9999 0.978849 17.106C1.39348 17.334 1.83438 17.5104 2.29177 17.6315C2.38616 17.6558 2.47576 17.6959 2.55682 17.7501C2.71188 17.8859 2.68988 18.0903 2.89645 18.3898C3.00015 18.5446 3.1319 18.6786 3.28491 18.7848C3.71844 19.0843 4.20562 19.1031 4.72177 19.123C5.18803 19.1407 5.71652 19.1611 6.32013 19.3602C6.57016 19.4428 6.82985 19.6028 7.13085 19.7895C7.85357 20.2339 8.84296 20.842 10.4987 20.842C12.1545 20.842 13.1509 20.2307 13.879 19.7847C14.1778 19.6012 14.4359 19.4428 14.6789 19.3623C15.2825 19.1627 15.811 19.1428 16.2773 19.1251C16.7935 19.1052 17.2806 19.0865 17.7142 18.787C17.8954 18.6606 18.0464 18.4956 18.1563 18.3039C18.3049 18.0512 18.3011 17.8746 18.4406 17.7511C18.5167 17.6996 18.6008 17.6611 18.6896 17.6374C19.1532 17.5159 19.6001 17.3378 20.0202 17.1071C20.2319 16.9935 20.4225 16.8442 20.5836 16.6659L20.589 16.6595C20.9881 16.2323 21.0885 15.7288 20.9248 15.2844ZM19.4531 16.0755C18.5555 16.5715 17.9588 16.5183 17.4947 16.8173C17.1004 17.0711 17.3337 17.6186 17.0472 17.8161C16.6953 18.0592 15.6549 17.7989 14.3109 18.2428C13.2024 18.6093 12.4952 19.6634 10.5014 19.6634C8.50762 19.6634 7.81709 18.6115 6.69035 18.2401C5.34899 17.7962 4.30649 18.0565 3.95398 17.8134C3.668 17.6159 3.90033 17.0684 3.5065 16.8146C3.04186 16.5156 2.44522 16.5688 1.54812 16.0755C0.976703 15.76 1.30077 15.5646 1.49125 15.4723C4.7427 13.8976 5.26153 11.4663 5.28461 11.286C5.31251 11.0676 5.34363 10.8958 5.10325 10.6736C4.87093 10.4589 3.84023 9.82081 3.55426 9.62116C3.08102 9.29055 2.87285 8.96047 3.0263 8.55473C3.13361 8.27403 3.39544 8.1683 3.67015 8.1683C3.75697 8.16857 3.84351 8.17828 3.92823 8.19728C4.4476 8.30999 4.95195 8.57029 5.24329 8.6406C5.27837 8.6496 5.31439 8.65447 5.3506 8.65509C5.5062 8.65509 5.56093 8.57673 5.55019 8.39855C5.51693 7.83018 5.43645 6.72242 5.52605 5.68712C5.64892 4.26271 6.10766 3.55694 6.65279 2.93276C6.91462 2.63274 8.14492 1.33231 10.4977 1.33231C12.8504 1.33231 14.0839 2.62737 14.3457 2.92632C14.8914 3.5505 15.3507 4.25627 15.4725 5.68068C15.5621 6.71598 15.4848 7.82427 15.4483 8.3921C15.436 8.57941 15.4923 8.64865 15.6479 8.64865C15.6841 8.64807 15.7202 8.6432 15.7552 8.63416C16.0471 8.56385 16.5515 8.30355 17.0708 8.19084C17.1556 8.17184 17.2421 8.16212 17.3289 8.16186C17.6052 8.16186 17.8655 8.2692 17.9728 8.54828C18.1262 8.95403 17.9191 9.28411 17.4454 9.61471C17.1594 9.81437 16.1287 10.452 15.8964 10.6672C15.6554 10.8894 15.6871 11.0611 15.715 11.2796C15.7381 11.4626 16.2564 13.8939 19.5084 15.4659C19.7004 15.5619 20.0245 15.7573 19.4531 16.0755Z" fill="black"/>
</svg>
