<svg width="21" height="21" viewBox="0 0 21 21" fill="none" xmlns="http://www.w3.org/2000/svg">
<path d="M15.0294 7.58053C16.3799 8.54931 18.0342 9.11932 19.821 9.11932V5.66878C19.4828 5.66886 19.1455 5.63347 18.8147 5.56313V8.27919C17.0281 8.27919 15.374 7.70918 14.0232 6.74048V13.782C14.0232 17.3045 11.1778 20.1599 7.66795 20.1599C6.35836 20.1599 5.14114 19.7626 4.13 19.0812C5.28405 20.2654 6.89346 21 8.67399 21C12.184 21 15.0296 18.1446 15.0296 14.6219V7.58053H15.0294ZM16.2708 4.09937C15.5806 3.3427 15.1275 2.36484 15.0294 1.28378V0.839966H14.0759C14.3159 2.214 15.1346 3.38789 16.2708 4.09937ZM6.34996 16.3781C5.96437 15.8707 5.75599 15.25 5.75693 14.6118C5.75693 13.0008 7.05841 11.6945 8.66408 11.6945C8.96333 11.6944 9.26077 11.7404 9.54595 11.8312V8.30355C9.21268 8.25771 8.87633 8.23825 8.54012 8.24539V10.9911C8.25473 10.9003 7.95714 10.8542 7.65783 10.8545C6.05215 10.8545 4.75074 12.1606 4.75074 13.7719C4.75074 14.9112 5.40127 15.8976 6.34996 16.3781Z" fill="#FF004F"/>
<path d="M14.0232 6.74041C15.3739 7.70911 17.0281 8.27912 18.8147 8.27912V5.56306C17.8174 5.34987 16.9345 4.82685 16.2707 4.09937C15.1345 3.38781 14.3159 2.21392 14.0758 0.839966H11.5711V14.6218C11.5654 16.2285 10.2661 17.5294 8.66392 17.5294C7.71975 17.5294 6.88095 17.0777 6.34972 16.3781C5.4011 15.8976 4.75058 14.9111 4.75058 13.772C4.75058 12.1609 6.05199 10.8546 7.65766 10.8546C7.9653 10.8546 8.26182 10.9026 8.53996 10.9912V8.24546C5.09181 8.31695 2.31866 11.1444 2.31866 14.6219C2.31866 16.3578 3.00924 17.9314 4.13006 19.0812C5.14119 19.7626 6.35841 20.16 7.668 20.16C11.1779 20.16 14.0232 17.3045 14.0232 13.782V6.74041H14.0232Z" fill="black"/>
<path d="M18.8147 5.56308V4.82867C17.9154 4.83004 17.0338 4.57729 16.2708 4.09932C16.9462 4.84143 17.8356 5.35313 18.8147 5.56308ZM14.0759 0.839985C14.053 0.708672 14.0354 0.576495 14.0232 0.443812V0H10.5648V13.782C10.5592 15.3884 9.26006 16.6894 7.65768 16.6894C7.18725 16.6894 6.74309 16.5773 6.34974 16.3782C6.88097 17.0778 7.71977 17.5294 8.66394 17.5294C10.266 17.5294 11.5655 16.2285 11.5711 14.6219V0.839985H14.0759ZM8.54012 8.24548V7.46365C8.25114 7.42402 7.9598 7.40412 7.66809 7.40427C4.15793 7.4042 1.3125 10.2597 1.3125 13.782C1.3125 15.9902 2.4308 17.9363 4.13015 19.0811C3.00933 17.9314 2.31876 16.3576 2.31876 14.6218C2.31876 11.1445 5.09183 8.31697 8.54012 8.24548Z" fill="#00F2EA"/>
</svg>
