<svg width="21" height="21" viewBox="0 0 21 21" fill="none" xmlns="http://www.w3.org/2000/svg">
<g clip-path="url(#clip0_264_1592)">
<path d="M20.5817 5.41229C20.463 4.96552 20.229 4.55778 19.9032 4.22986C19.5774 3.90194 19.1711 3.66535 18.7251 3.54376C17.0833 3.10229 10.5208 3.10229 10.5208 3.10229C10.5208 3.10229 3.95831 3.10229 2.31649 3.54376C1.8705 3.66535 1.46426 3.90194 1.13844 4.22986C0.812615 4.55778 0.57863 4.96552 0.459904 5.41229C0.020813 7.06126 0.020813 10.5 0.020813 10.5C0.020813 10.5 0.020813 13.9388 0.459904 15.5877C0.57863 16.0345 0.812615 16.4422 1.13844 16.7702C1.46426 17.0981 1.8705 17.3347 2.31649 17.4563C3.95831 17.8977 10.5208 17.8977 10.5208 17.8977C10.5208 17.8977 17.0833 17.8977 18.7251 17.4563C19.1711 17.3347 19.5774 17.0981 19.9032 16.7702C20.229 16.4422 20.463 16.0345 20.5817 15.5877C21.0208 13.9388 21.0208 10.5 21.0208 10.5C21.0208 10.5 21.0208 7.06126 20.5817 5.41229Z" fill="#FF0302"/>
<path d="M8.37317 13.6226V7.37747L13.8618 10.5L8.37317 13.6226Z" fill="#FEFEFE"/>
</g>
<defs>
<clipPath id="clip0_264_1592">
<rect width="21" height="21" fill="white"/>
</clipPath>
</defs>
</svg>
